<svg width="47" height="47" viewBox="0 0 47 47" fill="none" xmlns="http://www.w3.org/2000/svg">
<g id="purchase-home-purchase-a-house-house-shopping-house-hunting-svgrepo-com 1">
<path id="Vector" d="M37.9495 8.57548L39.9447 3.23768L37.0029 2.13685L36.0198 4.77013L33.7684 0.367188L18.439 6.35289L19.4492 8.97259L21.8185 8.03773L17.325 20.0514H35.3879L37.6279 14.0618L38.773 16.3114L41.2829 15.0642L37.9495 8.57548ZM29.7374 15.8682L26.1268 14.5188L27.4783 10.9062L31.0888 12.2575L29.7374 15.8682ZM40.2494 21.206L38.452 28.8813C37.9771 30.881 36.2098 32.2776 34.1547 32.2776H18.3559L18.9775 34.8681C19.216 35.8623 20.0969 36.5565 21.1191 36.5565H36.776V38.7649H21.1191C19.0715 38.7649 17.3077 37.3744 16.83 35.3835L11.9846 15.1937C11.7459 14.1995 10.8652 13.5052 9.843 13.5052H5.71875V11.2967H9.84282C11.8903 11.2967 13.6542 12.6872 14.1319 14.6783L15.767 21.206H40.2494ZM18.7835 43.4581C18.7835 45.2116 20.2048 46.6328 21.9582 46.6328C23.7115 46.6328 25.1329 45.2114 25.1329 43.4581C25.1329 41.7046 23.7115 40.2834 21.9582 40.2834C20.2048 40.2834 18.7835 41.7046 18.7835 43.4581ZM30.378 43.4581C30.378 45.2116 31.7993 46.6328 33.5527 46.6328C35.3062 46.6328 36.7274 45.2114 36.7274 43.4581C36.7274 41.7046 35.306 40.2834 33.5527 40.2834C31.7993 40.2834 30.378 41.7046 30.378 43.4581Z" fill="#222D39"/>
<path id="Vector_2" d="M37.9495 8.57548L39.9447 3.23768L37.0029 2.13685L36.0198 4.77013L33.7684 0.367188L18.439 6.35289L19.4492 8.97259L21.8185 8.03773L17.325 20.0514H35.3879L37.6279 14.0618L38.773 16.3114L41.2829 15.0642L37.9495 8.57548ZM29.7374 15.8682L26.1268 14.5188L27.4783 10.9062L31.0888 12.2575L29.7374 15.8682Z" fill="#E98862"/>
</g>
</svg>
