<svg width="40" height="26" viewBox="0 0 40 26" fill="none" xmlns="http://www.w3.org/2000/svg">
<path d="M20.8118 6.95187L20.8239 6.91109C24.2058 5.54571 25.5095 2.49385 24.0198 1.12847C22.5299 -0.236833 20.8239 1.73813 20.8239 1.73813H20.8118C20.8118 1.73813 19.1052 -0.236159 17.6161 1.12847C16.1262 2.49385 17.43 5.58724 20.8118 6.95187Z" fill="#E98862"/>
<path d="M9.75693 25.3525H18.1936C18.1936 19.6278 14.479 21.1664 13.5052 20.6325C12.766 20.2275 9.60524 18.8228 10.4532 16.1559C14.8777 16.641 16.472 15.114 16.2293 15.1742C15.9867 15.2349 14.2658 14.0564 14.2658 8.78332C14.2658 3.51023 9.12647 3.88521 9.12647 3.88521H9.07566C9.07566 3.88521 3.93136 3.52527 3.93136 8.79836C3.93136 14.0714 2.20753 15.3159 1.96568 15.255C1.72307 15.1942 3.31594 16.7255 7.74036 16.241C8.58903 18.908 5.51921 20.4622 4.68843 20.6454C3.22652 20.9674 0 19.6278 0 25.3525H8.45456H9.75693Z" fill="#222D39"/>
<path d="M25.3945 21.5011C21.5676 22.0543 20.5078 25.3524 20.5078 25.3524H29.8604H30.6748H40.0001C40.0001 25.3524 38.9418 22.0887 35.1156 21.5348C31.2888 20.9815 32.0902 18.5558 32.0902 18.5558C32.3978 18.2481 34.8917 17.5074 34.9525 11.7907C34.9525 4.59842 30.2891 4.60059 30.2891 4.60059H30.2326C30.2326 4.60059 25.562 4.66352 25.562 11.8558C25.6235 17.5726 28.1138 18.3111 28.4214 18.6181C28.4214 18.6181 29.2207 20.948 25.3945 21.5011Z" fill="#222D39"/>
</svg>
