<svg width="32" height="32" viewBox="0 0 32 32" fill="none" xmlns="http://www.w3.org/2000/svg">
<path d="M20.0365 10.0881C20.8572 10.0881 21.5223 10.7535 21.5223 11.5739C21.5223 12.3943 20.8571 13.0597 20.0365 13.0597C19.2158 13.0597 18.5507 12.3945 18.5507 11.5739C18.5507 10.7532 19.2159 10.0881 20.0365 10.0881ZM11.9631 10.0881C12.7837 10.0881 13.4489 10.7535 13.4489 11.5739C13.4489 12.3943 12.7837 13.0597 11.9631 13.0597C11.1424 13.0597 10.4773 12.3945 10.4773 11.5739C10.4773 10.7532 11.1424 10.0881 11.9631 10.0881ZM23.2971 21.5357C22.8697 21.5357 22.5232 21.1894 22.5229 20.762L22.5218 16.0336C22.5218 15.9891 22.4858 15.953 22.4413 15.953H22.2772C22.2326 15.953 22.1966 15.9891 22.1966 16.0336V29.2996C22.1966 29.851 21.7494 30.2981 21.1981 30.2981C20.6468 30.2981 20.1996 29.851 20.1996 29.2996V21.4942C20.1996 21.4372 20.1732 21.4136 20.1171 21.4136H19.9562C19.8999 21.4136 19.8737 21.4374 19.8737 21.4942V29.2996C19.8737 29.851 19.4266 30.2981 18.8753 30.2981C18.3239 30.2981 17.8767 29.851 17.8767 29.2996V16.0336C17.8767 15.9891 17.8407 15.953 17.7962 15.953H17.6321C17.5875 15.953 17.5515 15.9891 17.5515 16.0336L16.7762 20.762C16.7521 20.9055 16.7072 21.0297 16.6473 21.1347C16.5402 21.332 16.3586 21.4818 16.1235 21.5176C16.094 21.522 16.0646 21.5246 16.0353 21.5256C16.0237 21.5261 16.0117 21.5256 16.0001 21.5259C15.9884 21.5259 15.9765 21.5264 15.9649 21.5256C15.9359 21.5246 15.9063 21.522 15.8768 21.5176C15.6416 21.4821 15.46 21.3323 15.3529 21.1347C15.2928 21.03 15.2482 20.9058 15.2241 20.762L14.4488 16.0336C14.4488 15.9891 14.4127 15.953 14.3681 15.953H14.2041C14.1595 15.953 14.1235 15.9891 14.1235 16.0336V29.2996C14.1235 29.851 13.6763 30.2981 13.125 30.2981C12.5737 30.2981 12.1265 29.851 12.1265 29.2996V21.4942C12.1265 21.4372 12.1001 21.4136 12.0441 21.4136H11.8831C11.8268 21.4136 11.8007 21.4374 11.8007 21.4942V29.2996C11.8007 29.851 11.3535 30.2981 10.8022 30.2981C10.2509 30.2981 9.80372 29.851 9.80372 29.2996V16.0336C9.80372 15.9891 9.76767 15.953 9.72311 15.953H9.55905C9.51449 15.953 9.47844 15.9891 9.47844 16.0336L9.47735 20.762C9.47714 21.1894 9.13054 21.5357 8.70312 21.5357C8.27542 21.5357 7.92883 21.1889 7.92883 20.7614C7.92883 20.7591 7.92883 15.4452 7.92883 15.3817C7.92883 14.3221 8.74405 13.5071 9.76274 13.5071C9.78865 13.5071 14.1385 13.5071 14.1642 13.5071C15.1831 13.5071 15.8657 14.3143 15.9981 15.3817C15.9981 15.3817 15.9989 15.3885 15.9999 15.3952C16.001 15.3882 16.0017 15.3817 16.0017 15.3817C16.1341 14.3143 16.8169 13.5071 17.8356 13.5071C17.8616 13.5071 22.2114 13.5071 22.2371 13.5071C23.2561 13.5071 24.071 14.3223 24.0713 15.3817C24.0715 15.4452 24.0715 20.7591 24.0715 20.7614C24.0714 21.1889 23.7246 21.5357 23.2971 21.5357Z" fill="#E98862"/>
<path d="M16.1779 0.0449993C16.0999 -0.0153956 15.9739 -0.0148534 15.8959 0.0457583L12.6114 2.59953C12.5334 2.65992 12.4912 2.62907 12.4912 2.5303V0.842331C12.4912 0.743552 12.3691 0.67123 12.2703 0.67123H9.95167C9.8529 0.67123 9.79174 0.743552 9.79174 0.842331V4.59755C9.79174 4.69627 9.71942 4.8246 9.64141 4.88499L0.693589 11.7904C0.615575 11.8508 0.627502 11.8955 0.726226 11.8955H4.77826C4.87704 11.8955 4.96151 11.9831 4.96151 12.081V31.7941C4.96151 31.8929 5.03643 32 5.13521 32H26.9891C27.0879 32 27.1975 31.8924 27.1975 31.7941V12.0818C27.1975 11.983 27.2474 11.8962 27.3453 11.8962H31.2703C31.3685 11.8962 31.3854 11.8509 31.3076 11.7904L16.1779 0.0449993ZM20.0365 10.0879C20.8572 10.0879 21.5223 10.7533 21.5223 11.5737C21.5223 12.3942 20.8571 13.0595 20.0365 13.0595C19.2158 13.0595 18.5507 12.3944 18.5507 11.5737C18.5507 10.753 19.2159 10.0879 20.0365 10.0879ZM11.9631 10.0879C12.7837 10.0879 13.4489 10.7533 13.4489 11.5737C13.4489 12.3942 12.7837 13.0595 11.9631 13.0595C11.1424 13.0595 10.4773 12.3944 10.4773 11.5737C10.4773 10.753 11.1424 10.0879 11.9631 10.0879ZM23.2971 21.5355C22.8697 21.5355 22.5232 21.1892 22.5229 20.7618C22.5226 20.7616 22.5218 16.0335 22.5218 16.0335C22.5218 15.9889 22.4858 15.9529 22.4413 15.9529H22.2772C22.2326 15.9529 22.1966 15.9889 22.1966 16.0335C22.1966 16.0335 22.1966 29.298 22.1966 29.2995C22.1966 29.8508 21.7494 30.2979 21.1981 30.2979C20.6468 30.2979 20.1996 29.8508 20.1996 29.2995C20.1996 29.298 20.1996 21.4941 20.1996 21.4941C20.1996 21.437 20.1732 21.4134 20.1171 21.4134H19.9562C19.8999 21.4134 19.8737 21.4373 19.8737 21.4941C19.8737 21.4941 19.8737 29.2982 19.8737 29.2995C19.8737 29.8508 19.4266 30.2979 18.8753 30.2979C18.3239 30.2979 17.8767 29.8508 17.8767 29.2995C17.8767 29.298 17.8767 16.0335 17.8767 16.0335C17.8767 15.9889 17.8407 15.9529 17.7962 15.9529H17.6321C17.5875 15.9529 17.5515 15.9889 17.5515 16.0335C17.5515 16.0335 16.7765 20.7616 16.7762 20.7618C16.7521 20.9054 16.7072 21.0296 16.6473 21.1346C16.5402 21.3319 16.3586 21.4816 16.1235 21.5174C16.094 21.5219 16.0646 21.5245 16.0353 21.5255C16.0237 21.526 16.0117 21.5255 16.0001 21.5257C15.9884 21.5257 15.9765 21.5263 15.9649 21.5255C15.9359 21.5244 15.9063 21.5219 15.8768 21.5174C15.6416 21.482 15.46 21.3321 15.3529 21.1346C15.2928 21.0298 15.2482 20.9057 15.2241 20.7618C15.2238 20.7616 14.4488 16.0335 14.4488 16.0335C14.4488 15.9889 14.4127 15.9529 14.3681 15.9529H14.2041C14.1595 15.9529 14.1235 15.9889 14.1235 16.0335C14.1235 16.0335 14.1235 29.298 14.1235 29.2995C14.1235 29.8508 13.6763 30.2979 13.125 30.2979C12.5737 30.2979 12.1265 29.8508 12.1265 29.2995C12.1265 29.298 12.1265 21.4941 12.1265 21.4941C12.1265 21.437 12.1001 21.4134 12.0441 21.4134H11.8831C11.8268 21.4134 11.8007 21.4373 11.8007 21.4941C11.8007 21.4941 11.8007 29.2982 11.8007 29.2995C11.8007 29.8508 11.3535 30.2979 10.8022 30.2979C10.2509 30.2979 9.80372 29.8508 9.80372 29.2995C9.80372 29.298 9.80372 16.0335 9.80372 16.0335C9.80372 15.9889 9.76767 15.9529 9.72311 15.9529H9.55905C9.51449 15.9529 9.47844 15.9889 9.47844 16.0335C9.47844 16.0335 9.47762 20.7616 9.47735 20.7618C9.47714 21.1893 9.13054 21.5355 8.70312 21.5355C8.27542 21.5355 7.92883 21.1887 7.92883 20.7613C7.92883 20.759 7.92883 15.445 7.92883 15.3816C7.92883 14.3219 8.74405 13.5069 9.76274 13.5069C9.78865 13.5069 14.1385 13.5069 14.1642 13.5069C15.1831 13.5069 15.8657 14.3141 15.9981 15.3816C15.9984 15.3831 15.9989 15.3883 15.9999 15.3951C16.001 15.3881 16.0015 15.3829 16.0017 15.3816C16.1341 14.3141 16.8169 13.5069 17.8356 13.5069C17.8616 13.5069 22.2114 13.5069 22.2371 13.5069C23.2561 13.5069 24.071 14.3221 24.0713 15.3816C24.0715 15.445 24.0715 20.759 24.0715 20.7613C24.0714 21.1887 23.7246 21.5355 23.2971 21.5355Z" fill="#222D39"/>
</svg>
