<svg width="32" height="32" viewBox="0 0 32 32" fill="none" xmlns="http://www.w3.org/2000/svg">
<g clip-path="url(#clip0_1_929)">
<path d="M31.453 4.62502C30.765 2.73402 29.276 1.25002 27.385 0.562023C25.64 -0.000976622 24.052 -0.000976562 20.828 -0.000976562H11.146C7.948 -0.000976562 6.333 -0.000976622 4.615 0.530023C2.719 1.22302 1.23 2.71802 0.547 4.61302C0 6.34702 0 7.94602 0 11.144V20.837C0 24.051 0 25.639 0.531 27.373C1.219 29.264 2.708 30.748 4.599 31.436C6.333 31.983 7.932 31.983 11.135 31.983H20.838C24.052 31.983 25.651 31.983 27.374 31.452C29.27 30.764 30.765 29.27 31.452 27.374C31.999 25.64 31.999 24.041 31.999 20.838V11.171C31.999 7.95702 31.999 6.35802 31.452 4.62402L31.453 4.62502ZM23.229 10.802L21.984 12.042C21.734 12.271 21.349 12.276 21.093 12.052C19.89 11.042 18.369 10.484 16.801 10.479C15.504 10.479 14.212 10.906 14.212 12.094C14.212 13.292 15.597 13.693 17.196 14.292C19.998 15.23 22.316 16.401 22.316 19.146C22.316 22.136 19.998 24.188 16.212 24.412L15.863 26.016C15.8 26.318 15.535 26.532 15.228 26.532H12.837L12.717 26.522C12.363 26.444 12.139 26.09 12.212 25.736L12.587 24.043C11.149 23.684 9.827 22.96 8.743 21.949V21.933C8.493 21.683 8.493 21.277 8.743 21.027L10.076 19.735C10.331 19.501 10.722 19.501 10.972 19.735C12.186 20.881 13.811 21.521 15.493 21.495C17.227 21.495 18.384 20.761 18.384 19.599C18.384 18.437 17.212 18.135 14.999 17.307C12.65 16.468 10.426 15.281 10.426 12.505C10.426 9.28102 13.103 7.70802 16.28 7.56202L16.613 5.92102C16.676 5.61902 16.946 5.40502 17.254 5.41102H19.624L19.759 5.42702C20.103 5.50502 20.332 5.83802 20.254 6.18702L19.895 8.01502C21.093 8.41102 22.228 9.04102 23.197 9.86402L23.228 9.89502C23.478 10.161 23.478 10.562 23.228 10.801L23.229 10.802Z" fill="#222D39"/>
<path d="M23.229 10.802L21.984 12.042C21.734 12.271 21.349 12.276 21.093 12.052C19.89 11.042 18.369 10.484 16.801 10.479C15.504 10.479 14.212 10.906 14.212 12.094C14.212 13.292 15.597 13.693 17.196 14.292C19.998 15.23 22.316 16.401 22.316 19.146C22.316 22.136 19.998 24.188 16.212 24.412L15.863 26.016C15.8 26.318 15.535 26.532 15.228 26.532H12.837L12.717 26.522C12.363 26.444 12.139 26.09 12.212 25.736L12.587 24.043C11.149 23.684 9.827 22.96 8.743 21.949V21.933C8.493 21.683 8.493 21.277 8.743 21.027L10.076 19.735C10.331 19.501 10.722 19.501 10.972 19.735C12.186 20.881 13.811 21.521 15.493 21.495C17.227 21.495 18.384 20.761 18.384 19.599C18.384 18.437 17.212 18.135 14.999 17.307C12.65 16.468 10.426 15.281 10.426 12.505C10.426 9.28102 13.103 7.70802 16.28 7.56202L16.613 5.92102C16.676 5.61902 16.946 5.40502 17.254 5.41102H19.624L19.759 5.42702C20.103 5.50502 20.332 5.83802 20.254 6.18702L19.895 8.01502C21.093 8.41102 22.228 9.04102 23.197 9.86402L23.228 9.89502C23.478 10.161 23.478 10.562 23.228 10.801L23.229 10.802Z" fill="#E98862"/>
</g>
<defs>
<clipPath id="clip0_1_929">
<rect width="32" height="32" fill="white"/>
</clipPath>
</defs>
</svg>
