<svg width="32" height="32" viewBox="0 0 32 32" fill="none" xmlns="http://www.w3.org/2000/svg">
<path d="M0.356934 15.8996C0.356934 16.5425 0.865848 16.9309 1.49533 16.9309C1.88373 16.9309 2.19173 16.7434 2.45962 16.4755L15.531 4.56925C15.6784 4.42194 15.8391 4.36834 16.0132 4.36834C16.1739 4.36834 16.3212 4.42194 16.4819 4.56925L29.5401 16.4755C29.8212 16.7434 30.1292 16.9309 30.5042 16.9309C31.1337 16.9309 31.6428 16.5425 31.6428 15.8996C31.6428 15.4978 31.4954 15.2434 31.2409 15.0157L26.6069 10.7969V2.88177C26.6069 2.29245 26.2319 1.91748 25.6428 1.91748H23.8882C23.3123 1.91748 22.9105 2.29245 22.9105 2.88177V7.43531L17.6069 2.58714C17.1382 2.14514 16.5623 1.93085 15.9998 1.93085C15.4373 1.93085 14.8748 2.14514 14.3926 2.58714L0.758705 15.0157C0.517676 15.2434 0.356934 15.4978 0.356934 15.8996ZM4.18728 27.1362C4.18728 28.9978 5.3123 30.0826 7.2007 30.0826H12.6248V20.5603C12.6248 19.9442 13.04 19.5425 13.6561 19.5425H18.3837C18.9998 19.5425 19.4016 19.9442 19.4016 20.5603V30.0826H24.8122C26.7006 30.0826 27.8124 28.9978 27.8124 27.1362V17.3326L16.4418 7.08708C16.2944 6.95314 16.1337 6.88622 15.973 6.88622C15.8257 6.88622 15.6784 6.95314 15.5177 7.10051L4.18728 17.3996V27.1362Z" fill="#222D39"/>
<path d="M0.357422 15.8996C0.357422 16.5425 0.866336 16.9309 1.49582 16.9309C1.88422 16.9309 2.19222 16.7434 2.46011 16.4755L15.5315 4.56925C15.6788 4.42194 15.8396 4.36834 16.0136 4.36834C16.1744 4.36834 16.3217 4.42194 16.4824 4.56925L29.5406 16.4755C29.8217 16.7434 30.1297 16.9309 30.5047 16.9309C31.1342 16.9309 31.6432 16.5425 31.6432 15.8996C31.6432 15.4978 31.4959 15.2434 31.2414 15.0157L26.6074 10.7969V2.88177C26.6074 2.29245 26.2324 1.91748 25.6432 1.91748H23.8887C23.3128 1.91748 22.911 2.29245 22.911 2.88177V7.43531L17.6074 2.58714C17.1387 2.14514 16.5628 1.93085 16.0003 1.93085C15.4378 1.93085 14.8753 2.14514 14.3931 2.58714L0.759193 15.0157C0.518165 15.2434 0.357422 15.4978 0.357422 15.8996Z" fill="#E98862"/>
</svg>
