<svg width="32" height="42" viewBox="0 0 32 42" fill="none" xmlns="http://www.w3.org/2000/svg">
<path d="M0.460425 22.1177L1.14485 23.1345L8.98888 19.0809L16.2457 31.0614L30.2638 23.1317C31.6252 22.3617 32.0642 20.6571 31.2466 19.3242L24.3249 8.05945L23.0892 8.71669C22.7433 8.9002 22.464 9.3447 22.464 9.709C22.464 9.9027 22.464 10.1297 22.464 10.3703C22.464 11.1003 21.352 12.3019 19.9805 13.053L15.1521 15.6975C13.7799 16.4493 12.6686 16.4302 12.6686 15.6547C12.6686 15.6547 12.6686 15.3407 12.6686 14.9526C12.6686 14.5645 12.3879 14.3987 12.044 14.5829L10.6697 15.3129V14.5625C10.6697 14.1717 10.3863 13.7129 10.0369 13.5382L8.41524 12.7267C8.06522 12.552 7.49497 12.5439 7.14019 12.709L4.28423 14.0371C3.93012 14.2023 3.64194 14.6529 3.64194 15.0437V19.0456C3.64194 19.0456 2.77605 19.505 1.70829 20.0732C0.641216 20.6401 0.0825303 21.5549 0.460425 22.1177Z" fill="#222D39"/>
<path d="M16.7309 6.9061C16.0961 6.73415 15.831 6.59753 15.8127 6.36781C15.7964 6.16662 15.9303 5.94641 16.3965 5.90835C16.9138 5.86621 17.2638 6.00418 17.4507 6.07487L17.5995 5.24635C17.3392 5.15188 17.0075 5.07032 16.5325 5.09411L16.4801 4.46338L15.7774 4.51979L15.8324 5.2015C15.0766 5.40812 14.6729 5.93894 14.7252 6.57782C14.7816 7.2738 15.3356 7.59053 16.1253 7.78559C16.6779 7.92152 16.9219 8.07445 16.9443 8.34699C16.9661 8.6277 16.7003 8.81596 16.2844 8.84995C15.8175 8.88801 15.3818 8.77179 15.0671 8.63177L14.9203 9.48815C15.2058 9.61729 15.6829 9.71516 16.1654 9.69681L16.2219 10.3785L16.9314 10.3214L16.8709 9.58331C17.6852 9.37941 18.0848 8.79761 18.0338 8.15873C17.9802 7.50489 17.6104 7.13787 16.7309 6.9061Z" fill="#E98862"/>
<path d="M15.6029 0.0672744C15.6029 0.0672744 10.0704 0.250105 10.1608 7.98811C10.2342 14.3274 15.5723 13.7524 15.5723 13.7524C15.5723 13.7524 21.3066 13.7265 20.8247 4.51909C20.542 -0.900571 15.6029 0.0672744 15.6029 0.0672744ZM11.6533 7.63264H11.6513C11.5541 7.63264 11.4752 7.55516 11.4746 7.45797C11.4046 1.44292 15.7599 1.22882 15.8034 1.22747C15.9128 1.21863 15.9821 1.30087 15.9862 1.39806C15.9896 1.49593 15.9135 1.57749 15.8156 1.58157C15.6498 1.58769 11.7634 1.79499 11.8293 7.45389C11.8293 7.55176 11.7512 7.63196 11.6533 7.63264ZM15.7755 12.0777C15.7755 12.0777 12.8461 12.2319 12.9032 7.9215C12.9678 3.14141 16.532 2.52563 16.532 2.52563C16.532 2.52563 19.7312 1.90917 19.6645 5.5984C19.5395 12.5888 15.7755 12.0777 15.7755 12.0777Z" fill="#E98862"/>
<path d="M12.0662 41.4189C13.4222 42.1991 15.6154 42.193 16.9666 41.4046L28.7296 34.5366C30.0808 33.7482 31.1764 31.841 31.1764 30.2764V24.9268L15.7718 33.5898L8.45516 21.3633L2.48633 24.3477V33.0692C2.48633 34.6331 3.58467 36.5334 4.93992 37.3144L5.57677 37.6814V30.0814L9.54127 32.5506V39.9637L12.0662 41.4189Z" fill="#222D39"/>
</svg>
