<svg width="43" height="42" viewBox="0 0 43 42" fill="none" xmlns="http://www.w3.org/2000/svg">
<g id="mortgage-svgrepo-com (1) 1" clip-path="url(#clip0_1_322)">
<g id="Group">
<g id="Group_2">
<path id="Vector" d="M5.99705 22.1178L6.68147 23.1346L14.5255 19.081L21.7823 31.0615L35.8004 23.1319C37.1618 22.3618 37.6009 20.6572 36.7832 19.3244L29.8615 8.05957L28.6259 8.71681C28.2799 8.90032 28.0006 9.34482 28.0006 9.70912C28.0006 9.90283 28.0006 10.1298 28.0006 10.3704C28.0006 11.1004 26.8886 12.302 25.5171 13.0531L20.6887 15.6977C19.3165 16.4494 18.2052 16.4303 18.2052 15.6548C18.2052 15.6548 18.2052 15.3408 18.2052 14.9527C18.2052 14.5647 17.9245 14.3988 17.5806 14.583L16.2063 15.313V14.5626C16.2063 14.1718 15.9229 13.713 15.5735 13.5384L13.9519 12.7268C13.6018 12.5522 13.0316 12.544 12.6768 12.7092L9.82085 14.0372C9.46674 14.2024 9.17857 14.653 9.17857 15.0438V19.0457C9.17857 19.0457 8.31267 19.5052 7.24491 20.0734C6.17784 20.6402 5.61915 21.555 5.99705 22.1178Z" fill="#222D39"/>
<path id="Vector_2" d="M22.268 6.9061C21.6332 6.73415 21.3682 6.59753 21.3498 6.36781C21.3335 6.16662 21.4674 5.94641 21.9336 5.90835C22.4509 5.86621 22.8009 6.00418 22.9878 6.07487L23.1366 5.24635C22.8763 5.15188 22.5447 5.07032 22.0696 5.09411L22.0172 4.46338L21.3145 4.51979L21.3695 5.2015C20.6137 5.40812 20.21 5.93894 20.2623 6.57782C20.3187 7.2738 20.8727 7.59053 21.6625 7.78559C22.215 7.92152 22.459 8.07445 22.4814 8.34699C22.5032 8.6277 22.2374 8.81596 21.8215 8.84995C21.3546 8.88801 20.9189 8.77179 20.6042 8.63177L20.4574 9.48815C20.7429 9.61729 21.22 9.71516 21.7026 9.69681L21.759 10.3785L22.4685 10.3214L22.408 9.58331C23.2223 9.37941 23.6219 8.79761 23.571 8.15873C23.5173 7.50489 23.1475 7.13787 22.268 6.9061Z" fill="#E98862"/>
<path id="Vector_3" d="M21.1385 0.0675185C21.1385 0.0675185 15.606 0.250349 15.6964 7.98835C15.7698 14.3276 21.1079 13.7526 21.1079 13.7526C21.1079 13.7526 26.8423 13.7268 26.3604 4.51934C26.0776 -0.900327 21.1385 0.0675185 21.1385 0.0675185ZM17.189 7.63289H17.1869C17.0897 7.63289 17.0109 7.55541 17.0102 7.45821C16.9402 1.44316 21.2955 1.22907 21.339 1.22771C21.4484 1.21887 21.5178 1.30111 21.5218 1.39831C21.5252 1.49618 21.4491 1.57774 21.3512 1.58182C21.1854 1.58793 17.2991 1.79523 17.365 7.45414C17.365 7.55201 17.2868 7.63221 17.189 7.63289ZM21.3111 12.0779C21.3111 12.0779 18.3818 12.2322 18.4389 7.92175C18.5034 3.14165 22.0676 2.52587 22.0676 2.52587C22.0676 2.52587 25.2668 1.90942 25.2002 5.59865C25.0751 12.589 21.3111 12.0779 21.3111 12.0779Z" fill="#E98862"/>
<path id="Vector_4" d="M17.6033 41.4189C18.9593 42.1991 21.1526 42.193 22.5037 41.4046L34.2667 34.5366C35.6179 33.7482 36.7135 31.841 36.7135 30.2764V24.9268L21.3089 33.5898L13.9923 21.3633L8.02344 24.3477V33.0692C8.02344 34.6331 9.12178 36.5334 10.477 37.3144L11.1139 37.6814V30.0814L15.0784 32.5506V39.9637L17.6033 41.4189Z" fill="#222D39"/>
</g>
</g>
</g>
<defs>
<clipPath id="clip0_1_322">
<rect width="42" height="42" fill="white" transform="translate(0.537109)"/>
</clipPath>
</defs>
</svg>
