<svg width="40" height="37" viewBox="0 0 40 37" fill="none" xmlns="http://www.w3.org/2000/svg">
<path d="M31.5625 6.46875C33.2366 6.46875 34.5937 5.11161 34.5937 3.4375C34.5937 1.76339 33.2366 0.40625 31.5625 0.40625C29.8884 0.40625 28.5312 1.76339 28.5312 3.4375C28.5312 5.11161 29.8884 6.46875 31.5625 6.46875Z" fill="#222D39"/>
<path d="M35.375 7.25H27.8125C25.7187 7.25 24.0312 8.9375 24.0312 11.0312V20.2813C24.0312 21 24.625 21.625 25.375 21.625C26.125 21.625 26.7187 21.0313 26.7187 20.2813V11.8125C26.7187 11.5938 26.9062 11.4375 27.0937 11.4375C27.3125 11.4375 27.4688 11.625 27.4688 11.8125V34.7812C27.4688 35.9062 28.3125 36.8438 29.375 36.8438C30.4375 36.8438 31.2812 35.9062 31.2812 34.7812V21.6875C31.2812 21.4688 31.4688 21.3125 31.6563 21.3125C31.875 21.3125 32.0312 21.5 32.0312 21.6875V34.7812C32.0312 35.9062 32.875 36.8438 33.9375 36.8438C35 36.8438 35.8437 35.9062 35.8437 34.7812V11.8125C35.8437 11.5938 36.0312 11.4375 36.2188 11.4375C36.4375 11.4375 36.5937 11.625 36.5937 11.8125V20.3438C36.5937 21.0625 37.1875 21.6875 37.9375 21.6875C38.6875 21.6875 39.2812 21.0938 39.2812 20.3438V11.0312C39.1562 8.9375 37.4375 7.25 35.375 7.25Z" fill="#222D39"/>
<path d="M8.96875 6.5C10.6563 6.5 12 5.15625 12 3.46875C12 1.78125 10.6563 0.4375 8.96875 0.4375C7.84375 0.4375 6.84375 1.0625 6.3125 1.96875C6.25 2.0625 6.1875 2.1875 6.09375 2.25C5.5 2.84375 4.53125 2.84375 3.9375 2.25C3.84375 2.15625 3.78125 2.0625 3.71875 1.96875C4.09375 4.53125 6.28125 6.5 8.96875 6.5Z" fill="#222D39"/>
<path d="M16.5937 20.1875L15.4375 10.5312C15.1875 8.6875 13.5937 7.28125 11.6875 7.28125H5.90625C4 7.28125 2.40625 8.6875 2.15625 10.5312L0.999997 20.1875C0.906247 20.9062 1.4375 21.5625 2.15625 21.6562C2.875 21.75 3.53125 21.2188 3.625 20.5L4.6875 11.5C4.71875 11.3125 4.875 11.1875 5.0625 11.1875C5.28125 11.1875 5.4375 11.3438 5.4375 11.5625C5.4375 11.5938 5.4375 11.625 5.4375 11.625C5.4375 11.625 4.65625 17.9688 4.65625 18.125C4.625 18.2812 4.625 18.4688 4.625 18.625V34.7812C4.625 35.9062 5.46875 36.8438 6.53125 36.8438C7.59375 36.8438 8.4375 35.9375 8.4375 34.7812V21.6562C8.4375 21.4375 8.59375 21.2812 8.8125 21.2812C9.03125 21.2812 9.1875 21.4375 9.1875 21.6562V34.7812C9.1875 35.9062 10.0312 36.8438 11.0937 36.8438C12.1562 36.8438 13 35.9375 13 34.7812V18.625C13 18.4688 13 18.2812 12.9687 18.125C12.9375 18 12.1875 11.625 12.1875 11.625C12.1875 11.625 12.1875 11.5938 12.1875 11.5625C12.1875 11.3438 12.3437 11.1875 12.5625 11.1875C12.75 11.1875 12.9062 11.3125 12.9375 11.5L13.9687 20.5C14.0625 21.2188 14.7187 21.75 15.4375 21.6562C16.1562 21.5625 16.6875 20.9062 16.5937 20.1875Z" fill="#222D39"/>
</svg>
