<svg width="36" height="42" viewBox="0 0 36 42" fill="none" xmlns="http://www.w3.org/2000/svg">
<path d="M18 0C15.8244 0 13.6977 0.645139 11.8887 1.85383C10.0798 3.06253 8.66989 4.7805 7.83733 6.79048C7.00477 8.80047 6.78693 11.0122 7.21137 13.146C7.6358 15.2798 8.68345 17.2398 10.2218 18.7782C11.7602 20.3166 13.7202 21.3642 15.854 21.7886C17.9878 22.2131 20.1995 21.9952 22.2095 21.1627C24.2195 20.3301 25.9375 18.9202 27.1462 17.1113C28.3549 15.3023 29 13.1756 29 11C29 8.08262 27.8411 5.28473 25.7782 3.22183C23.7153 1.15893 20.9174 0 18 0Z" fill="#222D39"/>
<path d="M34 41.9998H2C1.46957 41.9998 0.960859 41.7891 0.585786 41.414C0.210714 41.0389 0 40.5302 0 39.9998V31.4998L0.9 30.8998C6.0246 27.6882 11.9522 25.9896 18 25.9998C24.064 25.9748 30.0047 27.7118 35.1 30.9998L36 31.4998V39.9998C36 40.5302 35.7893 41.0389 35.4142 41.414C35.0391 41.7891 34.5304 41.9998 34 41.9998ZM4 37.9998H32V33.7998C27.7576 31.3029 22.9227 29.9906 18 29.9998C13.092 30.0027 8.26856 31.2775 4 33.6998V37.9998Z" fill="black"/>
<path d="M34 41.9998H2C1.46957 41.9998 0.960859 41.7891 0.585786 41.414C0.210714 41.0389 0 40.5302 0 39.9998V31.4998L0.9 30.8998C6.0246 27.6882 11.9522 25.9896 18 25.9998C24.064 25.9748 30.0047 27.7118 35.1 30.9998L36 31.4998V39.9998C36 40.5302 35.7893 41.0389 35.4142 41.414C35.0391 41.7891 34.5304 41.9998 34 41.9998Z" fill="#E98862"/>
</svg>
